<svg width="497" height="630" viewBox="0 0 497 630" fill="none" xmlns="http://www.w3.org/2000/svg">
<path fill-rule="evenodd" clip-rule="evenodd" d="M9.62624 358.172L31.7796 150.01L33.1205 128.018V88.9731L35.1082 80.1594L36.5286 76.5944V71.6386L35.1082 66.0548L33.1205 63.037L39.583 46.5232L50.3462 34.0427L54.0399 27.1597V22.9826L61.2493 18.54L73.3649 17.0156L87.6019 31.8038L108.95 56.2105L130.04 76.5944L143.577 95.6521L152.716 108.447L159.84 128.018H171.251L185.197 129.159H193.881L197.143 131.825L204.207 129.159L209.919 130.611V125.009L212.069 120.243L218.563 125.009L216.721 133.172L218.563 140.96L235.067 145.892L245.07 142.347L262.68 148.703L265.777 152.657L262.68 162.78H268.398L269.927 166.386L268.398 168.618L267.003 170.8L265.777 178.54V181.835L269.927 187.24L271.865 192.593L276.271 210.478L278.009 205.048L282.806 198.122H288.631L296.261 203.59L298.308 210.478L300.082 206.649L310.769 210.478L312.549 214.659L315.382 219.579L318.888 224.608H325.809H327.511L330.014 227.056L333.761 230.7L339.579 231.915H345.749L348.896 234.155L354.285 231.915L360.691 223.273L368.049 219.579L371.519 223.273L375.827 227.056L379.267 230.7H382.148L389.959 223.273L394.151 220.952H399.55H405.228L410.908 223.273L413.816 227.056L416.073 230.7V235.631L419.406 241.95L417.29 247.171L416.073 252.955L413.816 256.852L410.908 258.59L408.347 268.292L409.642 276.353L406.618 284.105L402.825 281.061L399.55 286.732V293.19V296.616L402.825 303.71L406.618 310.296V314.337L405.228 317.427L402.825 320.953L397.498 327.312L394.151 333.767L389.959 336.711L394.151 340.872H401.551H402.825L408.347 344.124L409.642 350.098L412.526 352.436L417.29 350.098L419.406 352.436L423.48 348.893H428.524L431.285 352.436L432.575 354.749L436.201 350.098H450.459L457.903 354.749L463.049 344.124L467.679 342.766L474.133 336.711L472.249 331.819L474.133 330.52L477.754 331.819H481.215H484.534L495.301 340.872L491.883 344.124V348.893L487.579 351.25L481.215 350.098H479.271V352.436L480.57 358.172L483.124 362.95V368.899L484.534 372.245L485.613 374.227L489.783 378.193V379.45L487.579 380.523L484.534 381.159L480.57 382.301L477.754 383.164H475.189L474.133 382.301L472.841 378.193L468.714 377.526L466.965 379.45L465.827 382.301L464.445 384.952V388.015V391.005L465.827 395.057V396.096H460.927L458.719 387.297L454.399 386.41L453.023 388.015V389.968H449.387L446 392.482L441.402 389.165V396.096L439.373 403.82L434.511 400.542L431.846 401.368L429.268 405.231L431.846 412.846L439.373 413.909L438.507 417.768L442.047 421.715L447.655 419.317L452.378 420.516L454.399 423.642L450.459 430.788L449.387 431.474V436.607H446L440.046 434.235L440.581 438.281L445.154 443.201V446.553H440.046L432.575 454.76L423.48 457.419L424.66 460.858L421.019 466.348L420.437 469.661L419.406 472.959L415.106 472.419L409.642 471.387L405.228 472.959L404.056 476.016L398.746 472.419L396.745 473.679L401.551 478.06L402.124 482.05L400.551 483.032L398.746 484.292L397.498 485.562L396.745 486.686L395.015 488.695L392.633 491.773L391.993 493.593V496.108V499.163L392.633 501.082L393.165 502.966L392.633 510.818L398.746 513.856V518.082L395.871 521.112L395.015 522.761V524.718V526.75L394.151 528.294V529.959V532.086L395.015 533.724L395.871 535.802L397.498 537.676L399.55 539.131L401.551 540.776L402.825 542.449L402.124 545.155L401.551 545.923L400.551 547.119L404.056 548.196L404.663 549.177L402.124 553.448L395.871 550.517L394.151 551.193L391.993 551.767L388.132 555.854L385.432 556.537H383.123H380.462L376.824 558.762H375.827H372.649H372.115L371.519 560.701V562.658L370.628 564.16L370.081 566.059L375.827 572.732L378.428 573.324L386.091 583.654L384.099 585.258L385.432 587.729V595.322L380.462 597.147L375.827 606.31L373.92 603.49L370.081 608.999L363.538 612.777H362.876L359.272 610.474L353.395 614.869L345.091 608.38L344.324 607.232L341.239 600.247L336.325 596.464L332.278 598.101H325.809V600.247L326.694 623.489L311.964 629.182L298.84 625.161L275.052 622.672L272.546 610.474L276.271 589.049H270.911L261.557 581.835V573.324V572.732L246.534 571.927L234.371 565.411L231.247 554.621L220.661 550.517L217.418 545.923L200.038 539.782L199.247 519.963L195.432 516.76L191.04 515.722L187.487 514.483L185.197 513.856L183.069 515.722V516.76V518.808L182.225 519.963H180.57H178.698L167.771 518.082L154.502 521.112L151.746 525.982H147.287L140.351 529.959H131.293L110.943 522.761L108.064 518.808L93.5009 525.317L74.6654 528.294L79.8533 522.761L88.523 502.966L85.7296 489.901L74.6654 491.773L55.9346 480.667L49.2508 493.593L2.77774 509.42L3.45698 487.285L0.699219 474.739V473.679L3.45698 471.387L6.71512 467.745L8.82041 464.741L10.81 461.724L12.4185 458.422L13.6657 454.76L14.8318 452.344L15.8962 449.969L16.6792 446.553L17.5539 444.384L18.5175 440.655V433.177V431.474C19.6193 429.761 20.1702 428.905 20.1702 428.905C20.1702 428.905 20.5303 427.815 21.2504 425.636L22.3294 423.642L24.1162 423.031L25.8 422.5H27.8649H30.0845L33.1205 423.031L35.1082 423.642L36.5286 424.418L37.4834 427.211V428.905L38.4892 429.971H40.7017H42.5821H45.6031L48.2174 430.788H51.0784L53.169 431.474L55.9346 432.453H57.0202L60.5956 430.788L61.2493 429.971H62.7351L64.879 430.788H66.1189L67.904 429.971V428.905H80.4592V426.607L78.1951 424.418L76.6836 420.516L75.3531 417.768L72.8307 415.715L69.9244 415L67.904 414.448L66.1189 413.909L64.2074 411.391V408.986V406.85L64.879 403.82L65.56 403.087L33.1205 373.133H31.7796L30.0845 374.227L26.8216 381.159L27.8649 383.164L23.3321 389.165L22.3294 389.968V392.482L18.5175 396.096L17.5539 396.718V398.861L12.4185 401.368L8.20426 412.846V422.5V424.418L7.51714 425.636L4.92699 431.474L5.57295 435.739V437.69L3.45698 441.903L0.699219 438.967L9.62624 358.172Z" fill="#F7D9ED"/>
<path fill-rule="evenodd" clip-rule="evenodd" d="M9.62624 341.974L31.7796 133.812L33.1205 111.82V72.7754L35.1082 63.9616L36.5286 60.3967V55.4408L35.1082 49.8571L33.1205 46.8393L39.583 30.3254L50.3462 17.8449L54.0399 10.962V6.78481L61.2493 2.34226L73.3649 0.817871L87.6019 15.606L108.95 40.0127L130.04 60.3967L143.577 79.4544L152.716 92.2493L159.84 111.82H171.251L185.197 112.961H193.881L197.143 115.627L204.207 112.961L209.919 114.413V108.811L212.069 104.046L218.563 108.811L216.721 116.975L218.563 124.763L235.067 129.695L245.07 126.149L262.68 132.505L265.777 136.46L262.68 146.582H268.398L269.927 150.188L268.398 152.42L267.003 154.602L265.777 162.342V165.637L269.927 171.043L271.865 176.395L276.271 194.28L278.009 188.85L282.806 181.925H288.631L296.261 187.392L298.308 194.28L300.082 190.451L310.769 194.28L312.549 198.461L315.382 203.381L318.888 208.411H325.809H327.511L330.014 210.858L333.761 214.502L339.579 215.717H345.749L348.896 217.957L354.285 215.717L360.691 207.075L368.049 203.381L371.519 207.075L375.827 210.858L379.267 214.502H382.148L389.959 207.075L394.151 204.754H399.55H405.228L410.908 207.075L413.816 210.858L416.073 214.502V219.434L419.406 225.753L417.29 230.973L416.073 236.757L413.816 240.655L410.908 242.392L408.347 252.094L409.642 260.156L406.618 267.907L402.825 264.863L399.55 270.534V276.992V280.419L402.825 287.512L406.618 294.098V298.14L405.228 301.229L402.825 304.755L397.498 311.114L394.151 317.569L389.959 320.513L394.151 324.674H401.551H402.825L408.347 327.927L409.642 333.9L412.526 336.238L417.29 333.9L419.406 336.238L423.48 332.695H428.524L431.285 336.238L432.575 338.551L436.201 333.9H450.459L457.903 338.551L463.049 327.927L467.679 326.569L474.133 320.513L472.249 315.621L474.133 314.322L477.754 315.621H481.215H484.534L495.301 324.674L491.883 327.927V332.695L487.579 335.052L481.215 333.9H479.271V336.238L480.57 341.974L483.124 346.753V352.701L484.534 356.047L485.613 358.029L489.783 361.996V363.252L487.579 364.325L484.534 364.961L480.57 366.103L477.754 366.966H475.189L474.133 366.103L472.841 361.996L468.714 361.328L466.965 363.252L465.827 366.103L464.445 368.754V371.817V374.807L465.827 378.86V379.898H460.927L458.719 371.099L454.399 370.213L453.023 371.817V373.771H449.387L446 376.285L441.402 372.967V379.898L439.373 387.622L434.511 384.344L431.846 385.171L429.268 389.033L431.846 396.648L439.373 397.711L438.507 401.571L442.047 405.517L447.655 403.119L452.378 404.319L454.399 407.444L450.459 414.591L449.387 415.276V420.409H446L440.046 418.037L440.581 422.083L445.154 427.004V430.356H440.046L432.575 438.562L423.48 441.221L424.66 444.66L421.019 450.15L420.437 453.463L419.406 456.761L415.106 456.221L409.642 455.19L405.228 456.761L404.056 459.818L398.746 456.221L396.745 457.481L401.551 461.862L402.124 465.853L400.551 466.834L398.746 468.095L397.498 469.364L396.745 470.489L395.015 472.497L392.633 475.575L391.993 477.396V479.911V482.966L392.633 484.884L393.165 486.768L392.633 494.62L398.746 497.658V501.884L395.871 504.915L395.015 506.563V508.52V510.552L394.151 512.097V513.761V515.888L395.015 517.526L395.871 519.604L397.498 521.478L399.55 522.933L401.551 524.578L402.825 526.252L402.124 528.957L401.551 529.726L400.551 530.922L404.056 531.998L404.663 532.979L402.124 537.251L395.871 534.319L394.151 534.995L391.993 535.569L388.132 539.656L385.432 540.339H383.123H380.462L376.824 542.564H375.827H372.649H372.115L371.519 544.504V546.46L370.628 547.962L370.081 549.861L375.827 556.534L378.428 557.126L386.091 567.456L384.099 569.06L385.432 571.531V579.124L380.462 580.95L375.827 590.112L373.92 587.293L370.081 592.801L363.538 596.579H362.876L359.272 594.276L353.395 598.671L345.091 592.183L344.324 591.034L341.239 584.05L336.325 580.266L332.278 581.904H325.809V584.05L326.694 607.291L311.964 612.984L298.84 608.963L275.052 606.474L272.546 594.276L276.271 572.852H270.911L261.557 565.637V557.126V556.534L246.534 555.73L234.371 549.214L231.247 538.423L220.661 534.319L217.418 529.726L200.038 523.584L199.247 503.765L195.432 500.562L191.04 499.524L187.487 498.286L185.197 497.658L183.069 499.524V500.562V502.61L182.225 503.765H180.57H178.698L167.771 501.884L154.502 504.915L151.746 509.784H147.287L140.351 513.761H131.293L110.943 506.563L108.064 502.61L93.5009 509.119L74.6654 512.097L79.8533 506.563L88.523 486.768L85.7296 473.704L74.6654 475.575L55.9346 464.469L49.2508 477.396L2.77774 493.223L3.45698 471.087L0.699219 458.541V457.481L3.45698 455.19L6.71511 451.547L8.82041 448.543L10.81 445.527L12.4185 442.224L13.6657 438.562L14.8318 436.146L15.8962 433.771L16.6792 430.356L17.5539 428.186L18.5175 424.457V416.98V415.276C19.6193 413.564 20.1702 412.707 20.1702 412.707C20.1702 412.707 20.5303 411.618 21.2504 409.438L22.3294 407.444L24.1162 406.833L25.8 406.302H27.8649H30.0845L33.1205 406.833L35.1082 407.444L36.5286 408.22L37.4834 411.013V412.707L38.4892 413.774H40.7017H42.5821H45.6031L48.2174 414.591H51.0784L53.169 415.276L55.9346 416.255H57.0202L60.5956 414.591L61.2493 413.774H62.7351L64.879 414.591H66.1189L67.904 413.774V412.707H80.4592V410.409L78.1951 408.22L76.6836 404.319L75.3531 401.571L72.8307 399.517L69.9244 398.802L67.904 398.25L66.1189 397.711L64.2074 395.193V392.788V390.653L64.879 387.622L65.56 386.889L33.1205 356.935H31.7796L30.0845 358.029L26.8216 364.961L27.8649 366.966L23.3321 372.967L22.3294 373.771V376.285L18.5175 379.898L17.5539 380.52V382.663L12.4185 385.171L8.20426 396.648V406.302V408.22L7.51714 409.438L4.92699 415.276L5.57295 419.541V421.492L3.45698 425.705L0.699219 422.769L9.62624 341.974Z" stroke="#C53B97"/>
<path d="M159.84 111.82L165.446 133.693L164.417 154.564L168.46 166.252L177.172 183.826L179.387 196.915L181.096 214.87L185.522 224.056L191.9 230.758L196.734 238.67L205.746 248.998L209.773 246.874L207.149 242.159L209.773 241.011H212.675H218.651L223.186 242.159L227.016 244.846L234.657 252.345L245.598 255.96L248.164 259.153V268.385L253.708 277.248L268.581 269.977L273.262 257.236L283.36 259.153L285.558 252.345L283.36 248.998V244.846L286.915 236.222L289.975 237.332L296.271 236.222L291.126 224.056L293.923 219.864L296.271 214.87L300.364 210.235L304.019 203.963L298.541 196.915" stroke="#C53B97"/>
<path d="M196.49 240.574V244.948L201.013 248.346V250.389L200.464 251.426L197.474 252.131L194.612 257.461L192.895 257.042L189.22 261.879V264.375L185.475 267.96L177.281 270.492L169.182 276.305L159.451 271.581L149.976 281.157H147.331L146.222 292.915L135.753 290.189L132.122 302.943L125.171 307.942H118.861V320.18L112.885 342.284L118.861 363.978L132.122 373.422L138.515 382.116L166.911 402.655L174.843 410.181L179.688 416.089L183.394 421.886L189.22 430.678H196.49H201.013L205.242 433.469L203.175 441.049L208.133 455.364L218.636 458.75L223.326 452.832V447.019H229.553H236.173H243.234V441.049L250.646 433.469L243.234 428.679V421.886H248.164H252.634L255.632 416.089L258.667 410.181L252.634 402.655L258.667 396.972V390.227L267.66 386.091L270.312 388.199L275.285 382.116H286.432V373.422L291.284 370.325L297.672 373.422L299.128 374.113L306.16 366.082H312.547L314.754 360.851H317.65L320.57 356.357L317.65 353.376L309.824 355.505L303.876 351.58H299.128V346.001L293.845 343.186V338.778L290.135 331.667L288.1 329.748L283.459 331.667V323.156L292.246 315.12L290.135 311.46L288.1 307.942L287.042 305.763V302.154L283.459 301.031V295.992H277.896L276.507 294.371L274.247 288.954L276.507 284.154L271.451 280.351H267.66L259.27 285.98H257.823L255.632 283.542L253.991 277.918" stroke="#C53B97"/>
<path d="M182.683 500.108L175.884 498.176L174.733 496.668L177.633 493.117L178.246 486.683L175.884 484.565L172.038 483.656L165.848 477.955L166.821 473.95L167.858 473.116H173.371H175.884L180.242 473.95L189.645 475.182H192.284L196.557 473.95L198.33 473.116H200.457L205.644 469.028L208.133 455.364" stroke="#D368AF"/>
<path d="M454.399 370.213L450.723 366.915H442.915L438.105 363.007V355.961L434.36 353.244L426.079 351.056L424.995 354.773H419.469L417.855 359.171L413.495 358.288L408.935 354.773L404.774 355.961L398.313 354.773L394.912 352.346L386.808 349.293L383.709 352.346H382.591L380.502 351.056L375.773 348.383L372.717 345.083L368.283 343.868L362.892 354.095V360.146H358.377L356.25 358.288L353.828 360.957H349.572L344.575 354.773L340.421 358.288L339.563 359.171L333.773 356.517L331.711 353.244L327.39 352.346L320.571 355.961" stroke="#C53B97"/>
<path d="M9.62646 341.974H15.7859L21.8236 340.823H25.0038H28.6344L35.6434 335.359L55.2679 332.956L66.5818 335.359L69.1291 324.15L79.6725 331.935H94.2968L99.0678 330.991L104.918 327.652L107.467 326.719L112.886 325.135L117.211 324.15" stroke="#C53B97"/>
<path d="M216.309 348.55C221.676 348.55 226.027 344.199 226.027 338.831C226.027 333.464 221.676 329.113 216.309 329.113C210.941 329.113 206.59 333.464 206.59 338.831C206.59 344.199 210.941 348.55 216.309 348.55Z" stroke="#B70E7E" stroke-width="6"/>
<path d="M305.936 429.539C311.303 429.539 315.654 425.188 315.654 419.82C315.654 414.453 311.303 410.102 305.936 410.102C300.568 410.102 296.217 414.453 296.217 419.82C296.217 425.188 300.568 429.539 305.936 429.539Z" stroke="#B70E7E" stroke-width="6"/>
<path d="M271.381 475.971C276.748 475.971 281.099 471.62 281.099 466.253C281.099 460.885 276.748 456.534 271.381 456.534C266.013 456.534 261.662 460.885 261.662 466.253C261.662 471.62 266.013 475.971 271.381 475.971Z" stroke="#B70E7E" stroke-width="6"/>
<path d="M331.852 488.929C337.219 488.929 341.57 484.578 341.57 479.211C341.57 473.843 337.219 469.492 331.852 469.492C326.484 469.492 322.133 473.843 322.133 479.211C322.133 484.578 326.484 488.929 331.852 488.929Z" stroke="#B70E7E" stroke-width="6"/>
<path d="M357.768 416.58C363.135 416.58 367.486 412.229 367.486 406.862C367.486 401.494 363.135 397.143 357.768 397.143C352.4 397.143 348.049 401.494 348.049 406.862C348.049 412.229 352.4 416.58 357.768 416.58Z" stroke="#B70E7E" stroke-width="6"/>
<path d="M100.766 361.508C106.133 361.508 110.484 357.157 110.484 351.79C110.484 346.422 106.133 342.071 100.766 342.071C95.3983 342.071 91.0471 346.422 91.0471 351.79C91.0471 357.157 95.3983 361.508 100.766 361.508Z" stroke="#B70E7E" stroke-width="6"/>
<path d="M134.241 403.622C139.608 403.622 143.959 399.271 143.959 393.904C143.959 388.536 139.608 384.185 134.241 384.185C128.873 384.185 124.522 388.536 124.522 393.904C124.522 399.271 128.873 403.622 134.241 403.622Z" stroke="#B70E7E" stroke-width="6"/>
<path d="M170.955 318.315C176.323 318.315 180.674 313.963 180.674 308.596C180.674 303.229 176.323 298.877 170.955 298.877C165.588 298.877 161.237 303.229 161.237 308.596C161.237 313.963 165.588 318.315 170.955 318.315Z" stroke="#B70E7E" stroke-width="6"/>
</svg>
